<svg width="82" height="60" viewBox="0 0 82 60" fill="none" xmlns="http://www.w3.org/2000/svg">
<path d="M60.9664 58.7675L56.8534 45.2205C59.7753 44.6843 62.4557 43.2451 64.5175 41.1053C65.6995 39.7552 66.5999 38.1825 67.1658 36.4794C67.7317 34.7763 67.9518 32.9772 67.8131 31.1879C67.9598 28.0219 66.9419 24.912 64.9518 22.4462C64.1295 21.393 63.0794 20.54 61.8803 19.9512C60.6811 19.3624 59.3642 19.0531 58.0285 19.0467C53.2938 19.0467 50.3729 21.8413 49.2659 27.4305L47.171 38.2169C46.2275 44.3194 43.2898 49.9371 38.8171 54.1922C34.8463 57.8873 29.6007 59.9024 24.1786 59.8154C21.0046 59.8022 17.8701 59.1113 14.9844 57.7889C12.0987 56.4666 9.52839 54.5432 7.44517 52.1473C2.48871 46.5286 -0.053964 39.1813 0.368609 31.6991C0.320618 27.2055 1.07325 22.7393 2.59121 18.5099C3.82797 14.9546 5.83438 11.7165 8.46705 9.02704C10.7081 6.76539 13.2953 4.87576 16.1312 3.42932C18.7714 2.07068 21.6369 1.20453 24.5873 0.873291L28.5982 15.0082C24.6588 15.2644 20.9582 16.988 18.2261 19.8391C15.29 23.1379 13.7831 27.4681 14.0363 31.878C13.8246 35.1539 14.7248 38.4053 16.591 41.1053C17.3859 42.1801 18.4276 43.0477 19.6281 43.635C20.8287 44.2222 22.1528 44.5118 23.4888 44.4792C24.5873 44.4795 25.6741 44.2527 26.6809 43.8128C27.6876 43.3729 28.5926 42.7296 29.3391 41.9232C31.1244 40.0028 32.2906 37.5891 32.6857 34.9963L34.9084 24.2099C35.8665 18.5932 38.5446 13.4129 42.5725 9.38488C46.4698 5.74267 51.6509 3.79416 56.9811 3.96609C60.263 3.93261 63.5111 4.63096 66.4895 6.0104C69.4679 7.38984 72.1018 9.41574 74.1999 11.9409C78.87 17.2422 81.3457 24.1248 81.1231 31.1879C81.1731 35.2284 80.5338 39.2479 79.2327 43.0734C78.1666 46.21 76.422 49.0727 74.1232 51.4572C72.2538 53.3989 70.1003 55.045 67.7364 56.3392C65.6028 57.4578 63.3244 58.275 60.9664 58.7675Z" fill="white"/>
</svg>
