<svg width="154" height="155" viewBox="0 0 154 155" fill="none" xmlns="http://www.w3.org/2000/svg">
<g filter="url(#filter0_ddd_751_21782)">
<circle cx="77" cy="70" r="35" fill="#0B005A"/>
<path fill-rule="evenodd" clip-rule="evenodd" d="M66.1875 60C66.1875 59.5513 66.5513 59.1875 67 59.1875H72C72.4487 59.1875 72.8125 59.5513 72.8125 60C72.8125 60.4487 72.4487 60.8125 72 60.8125H68.9615L73.8245 65.6755C74.1418 65.9928 74.1418 66.5072 73.8245 66.8245C73.5072 67.1418 72.9928 67.1418 72.6755 66.8245L67.8125 61.9615V65C67.8125 65.4487 67.4487 65.8125 67 65.8125C66.5513 65.8125 66.1875 65.4487 66.1875 65V60ZM82 59.1875H87C87.4487 59.1875 87.8125 59.5513 87.8125 60V65C87.8125 65.4487 87.4487 65.8125 87 65.8125C86.5513 65.8125 86.1875 65.4487 86.1875 65V61.9615L81.3245 66.8245C81.0072 67.1418 80.4928 67.1418 80.1755 66.8245C79.8582 66.5072 79.8582 65.9928 80.1755 65.6755L85.0385 60.8125H82C81.5513 60.8125 81.1875 60.4487 81.1875 60C81.1875 59.5513 81.5513 59.1875 82 59.1875ZM73.8245 73.1755C74.1418 73.4928 74.1418 74.0072 73.8245 74.3245L68.9615 79.1875H72C72.4487 79.1875 72.8125 79.5513 72.8125 80C72.8125 80.4487 72.4487 80.8125 72 80.8125H67C66.5513 80.8125 66.1875 80.4487 66.1875 80V75C66.1875 74.5513 66.5513 74.1875 67 74.1875C67.4487 74.1875 67.8125 74.5513 67.8125 75V78.0385L72.6755 73.1755C72.9928 72.8582 73.5072 72.8582 73.8245 73.1755ZM80.1755 73.1755C80.4928 72.8582 81.0072 72.8582 81.3245 73.1755L86.1875 78.0385V75C86.1875 74.5513 86.5513 74.1875 87 74.1875C87.4487 74.1875 87.8125 74.5513 87.8125 75V80C87.8125 80.4487 87.4487 80.8125 87 80.8125H82C81.5513 80.8125 81.1875 80.4487 81.1875 80C81.1875 79.5513 81.5513 79.1875 82 79.1875H85.0385L80.1755 74.3245C79.8582 74.0072 79.8582 73.4928 80.1755 73.1755Z" fill="white"/>
</g>
<defs>
<filter id="filter0_ddd_751_21782" x="0" y="0" width="154" height="155" filterUnits="userSpaceOnUse" color-interpolation-filters="sRGB">
<feFlood flood-opacity="0" result="BackgroundImageFix"/>
<feColorMatrix in="SourceAlpha" type="matrix" values="0 0 0 0 0 0 0 0 0 0 0 0 0 0 0 0 0 0 127 0" result="hardAlpha"/>
<feMorphology radius="6" operator="dilate" in="SourceAlpha" result="effect1_dropShadow_751_21782"/>
<feOffset dy="7"/>
<feGaussianBlur stdDeviation="18"/>
<feColorMatrix type="matrix" values="0 0 0 0 0.054902 0 0 0 0 0.121569 0 0 0 0 0.207843 0 0 0 0.12 0"/>
<feBlend mode="normal" in2="BackgroundImageFix" result="effect1_dropShadow_751_21782"/>
<feColorMatrix in="SourceAlpha" type="matrix" values="0 0 0 0 0 0 0 0 0 0 0 0 0 0 0 0 0 0 127 0" result="hardAlpha"/>
<feMorphology radius="2" operator="dilate" in="SourceAlpha" result="effect2_dropShadow_751_21782"/>
<feOffset dy="19"/>
<feGaussianBlur stdDeviation="14.5"/>
<feColorMatrix type="matrix" values="0 0 0 0 0.054902 0 0 0 0 0.121569 0 0 0 0 0.207843 0 0 0 0.14 0"/>
<feBlend mode="normal" in2="effect1_dropShadow_751_21782" result="effect2_dropShadow_751_21782"/>
<feColorMatrix in="SourceAlpha" type="matrix" values="0 0 0 0 0 0 0 0 0 0 0 0 0 0 0 0 0 0 127 0" result="hardAlpha"/>
<feMorphology radius="6" operator="erode" in="SourceAlpha" result="effect3_dropShadow_751_21782"/>
<feOffset dy="9"/>
<feGaussianBlur stdDeviation="6"/>
<feColorMatrix type="matrix" values="0 0 0 0 0.054902 0 0 0 0 0.121569 0 0 0 0 0.207843 0 0 0 0.2 0"/>
<feBlend mode="normal" in2="effect2_dropShadow_751_21782" result="effect3_dropShadow_751_21782"/>
<feBlend mode="normal" in="SourceGraphic" in2="effect3_dropShadow_751_21782" result="shape"/>
</filter>
</defs>
</svg>
