<svg width="69" height="77" viewBox="0 0 69 77" fill="none" xmlns="http://www.w3.org/2000/svg">
<path d="M8.02005 50.3076L5.33999 60.5542C5.30979 60.6833 5.32622 60.8206 5.38568 60.936C5.44513 61.0513 5.54274 61.1353 5.65704 61.1695C5.73077 61.1894 5.8078 61.1875 5.8807 61.164C5.95359 61.1404 6.01988 61.0961 6.07317 61.0352L8.55012 57.7856C8.55012 57.7856 3.98262 67.1653 6.39517 70.2359C8.80772 73.3065 18.1954 68.2671 18.1954 68.2671L14.6087 70.784C14.5256 70.8784 14.4788 71.0061 14.4788 71.1392C14.4788 71.2723 14.5256 71.4 14.6087 71.4944C14.6615 71.5577 14.7288 71.6033 14.8032 71.626C14.8775 71.6487 14.956 71.6477 15.0298 71.623L24.3778 68.7817" fill="white"/>
<path d="M8.02005 50.3076L5.33999 60.5542C5.30979 60.6833 5.32622 60.8206 5.38568 60.936C5.44513 61.0513 5.54274 61.1353 5.65704 61.1695C5.73077 61.1894 5.8078 61.1875 5.8807 61.164C5.95359 61.1404 6.01988 61.0961 6.07317 61.0352L8.55012 57.7856C8.55012 57.7856 3.98262 67.1653 6.39517 70.2359C8.80772 73.3065 18.1954 68.2671 18.1954 68.2671L14.6087 70.784C14.5256 70.8784 14.4788 71.0061 14.4788 71.1392C14.4788 71.2723 14.5256 71.4 14.6087 71.4944C14.6615 71.5577 14.7288 71.6033 14.8032 71.626C14.8775 71.6487 14.956 71.6477 15.0298 71.623L24.3778 68.7817" stroke="#0B005A" stroke-width="2.2" stroke-linecap="round" stroke-linejoin="round"/>
<path d="M26.7461 20.1436C26.7461 20.1436 8.80301 23.1918 0.549805 34.7248L17.3931 53.7414L37.1592 31.4249L26.7461 20.1436Z" fill="#5233EA"/>
<path d="M50.7129 47.1975C50.7129 47.1975 48.013 67.4782 37.7931 76.7739L20.9746 57.7853L40.7407 35.4688L50.7129 47.1975Z" fill="#5233EA"/>
<path d="M26.0329 63.4961C44.0998 57.6793 52.6106 46.4763 57.0443 37.2085C61.4781 27.9407 64.0838 14.9982 59.8779 10.2497C55.6721 5.50109 44.2038 8.46545 35.9853 13.4657C27.7667 18.4659 17.7896 27.9742 12.6276 48.3612L6.93555 50.6991L23.9621 69.9226L26.0329 63.4738V63.4961Z" fill="white" stroke="#0B005A" stroke-width="2.2" stroke-miterlimit="10"/>
<path d="M45.916 34.2461C48.3033 31.5507 48.6107 27.5277 46.6026 25.2605C44.5945 22.9932 41.0312 23.3403 38.6439 26.0356C36.2566 28.731 35.9492 32.754 37.9573 35.0212C39.9655 37.2885 43.5287 36.9414 45.916 34.2461Z" fill="white" stroke="#0B005A" stroke-width="2.2" stroke-miterlimit="10"/>
<path d="M60.8883 11.0383L67.6553 3.40365L67.7098 3.34213C68.1 3.27389 68.4502 3.03344 68.6834 2.67366C68.9166 2.31388 69.0137 1.86425 68.9532 1.42369C68.8928 0.98312 68.6798 0.587705 68.3612 0.324428C68.0425 0.0611506 67.6443 -0.0484225 67.254 0.0198133C66.9432 0.0788406 66.6565 0.245773 66.4336 0.497386C66.2107 0.749 66.0629 1.07278 66.0106 1.42369L65.9561 1.47962L59.2039 9.11423C57.0738 7.53137 53.829 7.20697 50.2324 7.62646C52.8045 9.45396 55.1317 11.6878 57.1431 14.2599C59.0054 16.5994 60.6783 19.1227 62.1416 21.7994C62.6073 17.5039 62.3398 13.5831 60.8883 11.0383Z" fill="#5233EA"/>
<path d="M60.2144 27.5717C58.5758 23.7568 56.44 20.2407 53.8783 17.1406C51.2657 13.9776 48.081 11.4864 44.5402 9.83594C42.0131 10.6765 39.5604 11.7793 37.2134 13.1303C40.904 14.5621 45.2238 16.5812 49.8062 21.9171C53.1809 25.7341 55.81 30.3067 57.5244 35.3406C58.611 32.84 59.5107 30.2413 60.2144 27.5717Z" fill="#FF7084"/>
<path d="M25.8245 63.1714C26.6815 62.8918 27.5187 62.6121 28.3411 62.3101C27.4742 59.9945 25.8641 57.0637 22.1041 52.8969C18.3639 48.6069 15.7483 46.7836 13.6924 45.8271C13.4348 46.7444 13.197 47.6841 12.9295 48.6237C12.5678 50.0667 16.8926 51.6272 20.0185 55.2292C22.1512 57.6845 24.0937 60.3416 25.8245 63.1714Z" fill="#FF7084"/>
</svg>
